<svg id="Capa_1" enable-background="new 0 0 511.938 511.938" height="512" viewBox="0 0 511.938 511.938" width="512" xmlns="http://www.w3.org/2000/svg"><g><g><g><path d="m400.136 168.702c-46.484 0-84.167 58.933-84.167 131.631s37.683 131.631 84.167 131.631h-288.334c46.484 0 84.167-58.933 84.167-131.631s-37.683-131.631-84.167-131.631z" fill="#fff5cc"/></g></g><g><g><path d="m254.422 300.333c0-72.698-37.683-131.631-84.167-131.631h-58.453c46.484 0 84.167 58.933 84.167 131.631s-37.683 131.631-84.167 131.631h58.453c46.484-.001 84.167-58.934 84.167-131.631z" fill="#ffeb99"/></g></g><g><g><path d="m345.969 7.5h-22.67c-53.754 0-97.33 43.576-97.33 97.33h60c0-26.28 19.343-48.552 45.364-52.232l17.633-2.494c10.56-1.494 18.409-10.532 18.409-21.196.001-11.824-9.583-21.408-21.406-21.408z" fill="#c68d6d"/></g></g><g><g><path d="m55.969 168.181c0 23.61 23.694 40.115 45.696 31.552 5.443-2.118 12.001-3.568 20.974-3.568 33.335 0 33.335 20 66.67 20 33.334 0 33.334-20 66.667-20s33.333 20 66.665 20c33.331 0 33.331-20 66.662-20 8.97 0 15.526 1.448 20.968 3.566 22.003 8.562 45.697-7.942 45.697-31.552 0-8.083-2.9-15.902-8.173-22.029-48.528-56.383-115.41-81.948-171.244-58.82-.073.03-.147.061-.22.091-13.068 5.446-27.672 5.446-40.74 0-.073-.03-.146-.061-.22-.091-55.831-23.126-122.703 2.441-171.229 58.821-5.273 6.126-8.173 13.945-8.173 22.029v.001z" fill="#ff8fa2"/></g></g><g><g><path d="m430.729 426.429c0-20.63-20.704-35.053-39.929-27.57-4.756 1.851-10.486 3.117-18.327 3.117-29.128 0-29.128-17.476-58.257-17.476-29.127 0-29.127 17.476-58.254 17.476-29.126 0-29.126-17.476-58.252-17.476-29.125 0-29.125 17.476-58.249 17.476-7.838 0-13.567-1.266-18.322-3.116-19.226-7.481-39.93 6.94-39.93 27.57 0 7.063 2.534 13.895 7.142 19.249 42.405 49.269 100.846 71.607 149.634 51.398.064-.026.128-.053.192-.08 11.419-4.758 24.18-4.758 35.599 0 .064.027.128.053.192.08 48.785 20.208 107.218-2.133 149.62-51.398 4.608-5.353 7.142-12.186 7.142-19.249v-.001z" fill="#ff8fa2"/></g></g><g><g><path d="m228.078 84.611c-54.28-18.136-117.505 7.594-163.936 61.54-5.273 6.126-8.173 13.945-8.173 22.029v.001c0 23.61 23.694 40.115 45.696 31.552 5.443-2.118 12.001-3.568 20.974-3.568 28.159 0 32.534 14.27 53.305 18.702-33.595-75.488 52.134-90.817 52.134-130.256z" fill="#ff768d"/></g></g><g><g><path d="m173.028 390.647c-9.093 5.034-16.084 11.329-33.567 11.329-7.838 0-13.567-1.266-18.322-3.116-19.226-7.481-39.93 6.94-39.93 27.57 0 7.063 2.534 13.895 7.142 19.249 42.405 49.269 100.846 71.607 149.634 51.398-34.218 9.736-93.697-51.098-64.957-106.43z" fill="#ff768d"/></g></g><g><g><g><g><ellipse cx="172.901" cy="153.859" fill="#fff" rx="30.65" ry="24.408"/></g></g><g><g><ellipse cx="339.037" cy="153.703" fill="#fff" rx="30.65" ry="24.408"/></g></g></g><g><g><path d="m190.728 135.508c-6.251 0-12.195-2.703-16.313-7.418-2.725-3.12-2.403-7.858.716-10.582 3.119-2.725 7.856-2.405 10.583.716 1.268 1.452 3.095 2.285 5.014 2.285h.006c1.921-.002 3.749-.838 5.015-2.294 2.721-3.126 7.458-3.455 10.581-.737 3.125 2.718 3.455 7.456.737 10.581-4.112 4.728-10.061 7.444-16.318 7.45-.008-.001-.015-.001-.021-.001z"/></g></g><g><g><path d="m321.134 135.385c-6.25 0-12.193-2.703-16.311-7.419-2.724-3.12-2.402-7.858.718-10.582 3.121-2.724 7.859-2.402 10.583.718 1.267 1.451 3.093 2.283 5.011 2.283h.007c1.921-.002 3.749-.838 5.015-2.293 2.72-3.126 7.458-3.454 10.581-.737 3.125 2.718 3.455 7.456.737 10.581-4.112 4.729-10.061 7.444-16.318 7.45-.007-.001-.015-.001-.023-.001z"/></g></g><g><g><path d="m272.436 147.031c-2.093 0-4.175-.871-5.657-2.573-2.729-3.132-6.669-4.928-10.81-4.928s-8.08 1.796-10.81 4.928c-2.721 3.123-7.46 3.447-10.581.727-3.123-2.721-3.449-7.458-.728-10.582 5.578-6.402 13.641-10.074 22.118-10.074s16.54 3.672 22.118 10.074c2.722 3.123 2.396 7.86-.728 10.582-1.419 1.239-3.174 1.846-4.922 1.846z"/></g></g></g><g><path d="m453.481 141.258c-42.203-49.034-96.457-74.027-145.854-69.27 6.739-6.373 15.357-10.636 24.756-11.965l17.635-2.494c14.172-2.005 24.858-14.31 24.858-28.623 0-15.938-12.967-28.906-28.907-28.906h-22.67c-23.903 0-47.287 8.259-65.845 23.254-16.585 13.403-28.736 31.682-34.719 51.978-21.202-5.485-44.095-5.143-67.104 1.137-3.996 1.09-6.352 5.214-5.261 9.21s5.216 6.349 9.21 5.261c25.501-6.959 50.719-5.778 72.921 3.419.002 0 .094.039.096.04l.109.045c14.995 6.25 31.513 6.25 46.49.008l.225-.093c50.969-21.115 114.829 1.176 162.69 56.784 4.1 4.764 6.357 10.85 6.357 17.137 0 8.834-4.19 16.767-11.496 21.763-7.184 4.914-15.924 5.933-23.981 2.799-7.148-2.781-14.675-4.076-23.688-4.076-18.743 0-28.543 5.88-37.19 11.069-7.986 4.792-14.884 8.931-29.472 8.931-14.589 0-21.486-4.139-29.474-8.931-8.646-5.188-18.447-11.069-37.191-11.069s-28.546 5.88-37.192 11.069c-7.987 4.792-14.886 8.931-29.475 8.931-14.59 0-21.488-4.139-29.477-8.931-8.647-5.188-18.449-11.069-37.194-11.069-9.018 0-16.546 1.296-23.693 4.079-8.055 3.134-16.794 2.114-23.979-2.798-7.308-4.997-11.498-12.931-11.498-21.766 0-6.287 2.258-12.373 6.357-17.136 18.478-21.468 40.161-38.705 62.707-49.847 3.713-1.835 5.235-6.333 3.4-10.046-1.836-3.713-6.331-5.237-10.047-3.401-24.334 12.026-47.65 30.529-67.43 53.509-6.441 7.484-9.988 17.045-9.988 26.922 0 13.66 6.74 26.425 18.03 34.146 11.168 7.638 25.331 9.281 37.887 4.396 5.357-2.086 11.157-3.057 18.253-3.057 14.591 0 21.489 4.139 29.478 8.932 5.206 3.123 10.846 6.489 18.588 8.68 11.456 22.252 17.765 50.233 17.765 79.056 0 31.478-7.393 61.551-20.815 84.678-.016.028-.028.057-.044.085-.985.573-1.943 1.147-2.884 1.712-6.857 4.115-12.78 7.669-25.266 7.669-6.076 0-11.033-.828-15.602-2.605-11.261-4.382-23.965-2.909-33.984 3.942-10.122 6.923-16.165 18.368-16.165 30.617 0 8.857 3.181 17.43 8.957 24.141 34.094 39.613 77.168 61.368 117.662 61.367 13.963 0 27.62-2.587 40.496-7.92l.138-.057c.001 0 .099-.041.101-.042 9.615-4.008 20.21-4.008 29.862.014l.173.072c50.24 20.812 112.326-.165 158.174-53.435 5.776-6.711 8.957-15.285 8.957-24.142 0-12.249-6.044-23.695-16.167-30.619-10.017-6.85-22.721-8.323-33.982-3.941-4.569 1.778-9.528 2.607-15.606 2.607-12.487 0-18.411-3.554-25.271-7.669-.937-.562-1.89-1.134-2.87-1.703-.017-.03-.03-.062-.048-.092-11.047-19.032-18.009-42.602-20.134-68.162-.344-4.129-3.983-7.193-8.096-6.853-4.128.343-7.196 3.968-6.854 8.096 1.788 21.501 6.791 41.781 14.598 59.569-2.885-.415-6.045-.662-9.583-.662-16.641 0-25.324 5.21-32.985 9.807-6.859 4.115-12.782 7.669-25.269 7.669-12.485 0-18.409-3.554-25.268-7.669-7.659-4.599-16.342-9.809-32.983-9.809-3.531 0-6.686.246-9.566.659 9.947-22.721 15.325-49.58 15.325-77.326 0-27.338-5.311-54.092-15.068-76.685.307.003.597.018.909.018 18.744 0 28.545-5.88 37.191-11.069 7.987-4.792 14.886-8.931 29.476-8.931 14.589 0 21.487 4.139 29.475 8.931 8.646 5.188 18.447 11.069 37.19 11.069.302 0 .582-.014.879-.017-8.136 18.775-13.157 40.259-14.611 62.878-.266 4.133 2.87 7.7 7.003 7.965.164.011.327.016.488.016 3.923 0 7.223-3.05 7.478-7.02 1.568-24.379 7.565-47.217 17.346-66.205 7.752-2.191 13.397-5.56 18.607-8.686 7.986-4.792 14.884-8.931 29.472-8.931 7.092 0 12.891.971 18.249 3.056 12.553 4.884 26.718 3.242 37.888-4.397 11.289-7.721 18.028-20.485 18.028-34.145 0-9.877-3.547-19.437-9.988-26.922zm-167.737-65.086c-4.077 1.186-8.101 2.588-12.058 4.227l-.129.054-.11.046c-11.277 4.699-23.697 4.698-34.971 0-.007-.003-.104-.043-.11-.046l-.124-.052c-.417-.173-.842-.322-1.26-.49 11.004-38.464 45.794-64.911 86.317-64.911h22.67c7.669 0 13.907 6.239 13.907 13.907 0 6.886-5.142 12.806-11.959 13.771l-17.634 2.494c-18.909 2.674-35.457 14.236-44.539 31zm-88.034 315.828c12.485 0 18.409 3.554 25.268 7.669 7.661 4.597 16.344 9.807 32.984 9.807s25.324-5.21 32.985-9.807c6.859-4.115 12.782-7.669 25.269-7.669s18.41 3.554 25.27 7.669c7.661 4.597 16.346 9.807 32.987 9.807 7.999 0 14.688-1.153 21.047-3.628 6.742-2.622 14.06-1.77 20.075 2.345 6.122 4.187 9.634 10.834 9.634 18.237v.001c0 5.267-1.892 10.366-5.326 14.356-31.155 36.198-70.08 56.147-106.233 56.146-12.059 0-23.812-2.22-34.861-6.797l-.147-.061c-13.339-5.559-28.031-5.56-41.323-.019l-.223.092c-44.155 18.291-99.531-1.087-141.079-49.361-3.435-3.99-5.326-9.089-5.326-14.356 0-7.402 3.511-14.049 9.633-18.235 3.72-2.544 7.936-3.841 12.207-3.841 2.638 0 5.296.495 7.87 1.497 6.358 2.474 13.044 3.626 21.041 3.626 16.64 0 25.323-5.21 32.984-9.807 6.856-4.117 12.779-7.671 25.264-7.671z"/></g></g></svg>