<svg height="434pt" viewBox="0 -16 434.263 434" width="434pt" xmlns="http://www.w3.org/2000/svg"><g fill="#937d69"><path d="m434.261719 246.214844c0 7.402344-3 14.101562-7.851563 18.953125-4.851562 4.851562-11.550781 7.851562-18.964844 7.851562h-18.789062c-24.085938 0-43.625-19.527343-43.625-43.628906 0-3.5625-.261719-7.097656-.769531-10.558594 0-.007812 0-.007812 0-.019531 3.515625-30.105469-17.144531-57.410156-46.21875-62.894531h7.765625c33.015625 0 59.785156 26.769531 59.785156 59.777343v.011719c0 16.839844 13.652344 30.503907 30.503906 30.503907h38.164063zm0 0"/><path d="m140.441406 264.011719-10.242187-5.355469c-17.300781-9.039062-31.683594-22.089844-42.246094-37.667969h-.007813l31.703126 81.570313-4.472657 80.578125c-9.160156 1.839843-16.058593 9.929687-16.058593 19.628906h38.488281l8.84375-124.882813v-.238281l-2.371094-5.382812zm0 0"/><path d="m320.523438 289.378906c-5.351563-3.875-9.253907-9.667968-12.105469-16.027344-7.34375 2.457032-15.828125 4.789063-25.402344 6.492188 1.976563 8.816406 4.382813 12.398438 13.167969 19.042969 8.289062 6.28125 13.363281 15.914062 13.363281 26.328125l-15.46875 57.523437h-.734375c-11.058594 0-20.023438 8.96875-20.023438 20.027344h33.539063s19.242187-65.960937 26.398437-90.519531c-.839843-9.046875-5.316406-17.507813-12.734374-22.867188zm0 0"/></g><path d="m312.652344 273.179688c-15.191406 5.09375-35.046875 9.710937-59.121094 9.710937-26.523438 0-45.597656-2.800781-59.445312-5.878906.355468-.957031.695312-1.953125 1.023437-2.96875 5.113281-16.035157 2.257813-30.203125.132813-37.417969-.226563-.773438.574218-1.425781 1.285156-1.046875 7.855468 4.167969 22.542968 11.773437 52.609375 11.773437 18.910156 0 45.601562-8.148437 54.472656-12.195312.582031-.269531 1.261719.132812 1.28125.777344.195313 4.972656 1.324219 22.433594 7.761719 37.246094zm0 0" fill="#c4ad90"/><path d="m46.070312 94.09375v33.03125c0 1.398438-1.441406 2.308594-2.832031 2.148438-.488281-.050782-.96875-.230469-1.378906-.558594-5.5625-4.480469-9.921875-9.851563-12.890625-15.742188-2.960938-5.898437-4.539062-12.320312-4.539062-18.878906zm0 0" fill="#937d69"/><path d="m46.070312 94.09375v33.03125c0 1.398438-1.441406 2.308594-2.832031 2.148438-6.390625-8.390626-9.738281-18.070313-9.738281-27.71875 0-2.5.230469-4.992188.6875-7.460938zm0 0" fill="#c4ad90"/><path d="m183.445312 57.253906c-.179687.972656-.382812 1.953125-.621093 2.921875l-.089844.371094c-.390625 1.546875-.761719 1.839844-.761719 1.839844s.070313-.421875.113282-.621094c2.589843-14.71875-4.371094-29.488281-17.171876-36.898437-.488281-.300782-.988281-.570313-1.5-.839844-.378906-.203125-.78125-.390625-1.171874-.582032-1.308594-.621093-2.667969-1.167968-4.078126-1.628906-18.671874-6.152344-39.121093 4.988282-46.871093 28.5l-15.117188-7.921875-.273437-.140625-7.800782-4.078125c.351563-1.550781.773438-3.089843 1.28125-4.628906 8.410157-25.5 35.890626-39.363281 61.398438-30.960937 23.265625 7.679687 36.855469 31.230468 32.664062 54.667968zm0 0" fill="#c4ad90"/><path d="m183.445312 57.253906c-.179687.972656-.382812 1.953125-.621093 2.921875l-.089844.371094c-.390625 1.546875-.761719 1.839844-.761719 1.839844s.070313-.421875.113282-.621094c2.589843-14.71875-4.371094-29.488281-17.171876-36.898437-.488281-.300782-.988281-.570313-1.5-.839844-.378906-.203125-.78125-.390625-1.171874-.582032-1.308594-.621093-2.667969-1.167968-4.078126-1.628906-18.671874-6.152344-39.121093 4.988282-46.871093 28.5l-15.117188-7.921875-.273437-.140625c.8125-1.738281 2.191406-4.386718 2.761718-5.546875 11.570313-23.730469 38.761719-33.351562 60.75-21.5 15.300782 8.269531 24.050782 24.777344 24.03125 42.046875zm0 0" fill="#937d69"/><path d="m356.597656 285.722656c-4.707031-3.1875-7.796875-7.449218-9.699218-12.339844-1.910157-4.878906-2.628907-10.390624-2.628907-16.101562l7.609375-23.226562 1.929688-10.203126c6.660156-35.308593-20.417969-67.980468-56.347656-67.980468h-117.109376c-15.621093 0-29.632812-9.667969-35.160156-24.289063l-3.621094-9.570312-2-5.289063-3.101562-8.191406-10.4375-32.660156c8.277344-.828125 14.839844-3.75 14.839844-3.75s-4.839844-19.007813-18.859375-25.789063c-4.5-2.160156-9.011719-3.578125-13.199219-4.238281l-3.582031-1.28125c-3.960938-2.089844-8.390625-3.351562-13.058594-3.558594-.492187-.019531-.972656-.03125-1.460937-.03125-8.3125 0-16.550782 1.550782-24.289063 4.570313l-58.222656 22.699219c-2.449219.851562-4.5 2.429687-5.9375 4.441406-1.441407 2.007812-2.261719 4.457031-2.261719 7.058594 0 11.332031 9.191406 20.53125 20.53125 20.53125h15.597656c10.601563 9.21875 28.042969 10.867187 31.222656 11.097656.320313.019531.5.03125.5.03125v51.210937c0 42.519531 23.628907 81.507813 61.320313 101.191407l10.097656 5.277343.550781 1.261719h.011719l3.019531 6.871094 8.808594 19.988281 40.941406 90.964844c-7.070312 3.089843-12.015624 10.136719-12.015624 18.347656h43.863281l-27.109375-61.152344c-6.757813-15.351562-9.449219-27.121093-10.476563-34.808593-.339843-2.542969-.480469-5.101563-.429687-7.671876 0-.03125 0-.0625 0-.09375.085937-4.125 1.324218-8.160156 3.566406-11.625 2.378906-3.671874 4.808594-8.316406 6.589844-13.921874 4.851562-15.21875 2.140625-28.660157.132812-35.507813-.222656-.730469.539063-1.351563 1.210938-.992187 7.457031 3.960937 21.386718 11.171874 49.917968 11.171874 17.9375 0 43.269532-7.730468 51.6875-11.570312.550782-.25 1.191407.128906 1.210938.738281.191406 4.789063 1.300781 21.820313 7.671875 36.019531 2.851563 6.363282 6.75 12.152344 12.109375 16.023438 7.410156 5.367188 11.890625 13.828125 12.730469 22.867188.089843 1.03125.148437 2.0625.148437 3.101562v68.449219c-7.933594 2.664062-13.652344 10.144531-13.652344 18.972656h27v-.632813h6.28125v-56.667968l5.949219-50.089844c.75-5.089844-.320312-8.261719-2.390625-9.652344zm0 0" fill="#eae6e1"/><path d="m78.007812 56.128906c0 3.453125-2.800781 6.253906-6.253906 6.253906s-6.253906-2.800781-6.253906-6.253906 2.800781-6.253906 6.253906-6.253906 6.253906 2.800781 6.253906 6.253906zm0 0"/><path d="m122.050781 222.992188c-1.230469-2.929688-3.101562-5.546876-5.492187-7.667969-3.378906-3-6.050782-6.660157-7.859375-10.699219-1.808594-4.042969-2.789063-8.460938-2.789063-12.992188l-.160156-31.46875v-.21875c0-19.871093 14.71875-37.761718 33.820312-43.222656l-3.101562-8.1875-10.4375-32.660156s-10.289062-1.96875-14.640625-11.882812c-.355469-.800782-1.070313-1.394532-1.921875-1.605469 0 0 1.671875 11.535156 10.5 16.761719 1.277344.753906 1.601562 2.457031.644531 3.59375-7.535156 8.957031-21.710937 23.644531-34.542969 24.910156-11.199218 1.101562-18.71875-.078125-18.71875-.078125v.050781c.316407.019531.5.027344.5.027344v51.210937c0 42.519531 23.628907 81.511719 61.316407 101.191407l10.101562 5.277343-.097656-.25zm0 0" fill="#c4bfb7"/></svg>