<svg xmlns="http://www.w3.org/2000/svg" height="48" width="48" viewBox="0 0 48 48"><title>palm tree</title><g class="nc-icon-wrapper"><path d="M21.38,10.7l.284.685a34.4,34.4,0,0,1,2.642,13.26,34.372,34.372,0,0,1-2.973,14.047l-.559,1.256,6.057.637A31.916,31.916,0,0,0,29,29,31.859,31.859,0,0,0,22.548,9.733Z" fill="#a2703f"></path><path d="M38.226,47H9.774a1,1,0,0,1-.791-1.612,18.956,18.956,0,0,1,30.034,0A1,1,0,0,1,38.226,47Z" fill="#ffd764"></path><path d="M37.766,11.079A14.759,14.759,0,0,0,29.278,8.8l8.154-3.9a1,1,0,0,0,.06-1.772C37.229,2.979,30.971-.5,26.351,1.962a8.308,8.308,0,0,0-3.968,5.686,7.7,7.7,0,0,0-4.878-3.517c-5.028-.986-10,3.945-10.214,4.155a1,1,0,0,0,.593,1.7l9.168,1.077c-3.264,1.118-5.551,2.755-6.886,4.968-1.746,2.9-1.782,6.7-.105,11.313a1,1,0,0,0,.8.648A.978.978,0,0,0,11,28a1,1,0,0,0,.807-.409L23.181,12.062l18.311,10.8A.991.991,0,0,0,42,23a1,1,0,0,0,1-1.059C42.7,16.918,40.942,13.264,37.766,11.079Z" fill="#7746e0"></path><circle cx="24" cy="14" r="3" fill="#7d5731"></circle><path d="M42,23a.991.991,0,0,1-.508-.139L22.4,11.6a1,1,0,0,1,.205-1.815c.373-.117,9.156-2.835,15.16,1.291C40.942,13.264,42.7,16.918,43,21.941A1,1,0,0,1,42,23Z" fill="#49c549"></path><path d="M23,11.741a.9.9,0,0,1-.116-.007L7.975,9.983a1,1,0,0,1-.593-1.7c.21-.211,5.182-5.14,10.214-4.154,2.7.531,4.83,2.627,6.327,6.226A1,1,0,0,1,23,11.741Z" fill="#49c549"></path><path d="M22.909,11.741a1,1,0,0,1-1-1.077c.34-4.386,1.833-7.313,4.439-8.7C30.971-.5,37.229,2.979,37.492,3.13a1,1,0,0,1-.06,1.772L23.341,11.644A1,1,0,0,1,22.909,11.741Z" fill="#38a838"></path><path d="M11.091,28a.978.978,0,0,1-.142-.01,1,1,0,0,1-.8-.648c-1.676-4.61-1.64-8.416.106-11.313,2.012-3.335,6.135-5.388,12.606-6.278a.986.986,0,0,1,1,.478,1,1,0,0,1-.052,1.1L11.9,27.591A1,1,0,0,1,11.091,28Z" fill="#38a838"></path></g></svg>