<svg id="Layer_1" enable-background="new 0 0 497 497" height="512" viewBox="0 0 497 497" width="512" xmlns="http://www.w3.org/2000/svg"><g><path d="m230.5 101.829s-5.065-66.054 43.748-98.528c19.808-13.178 41.087 16.392 22.443 30.878-13.104 10.182-25.27 31.797-25.27 68.098z" fill="#a34708"/><g><path d="m82.698 463.957c-45.673 0-82.698-74.199-82.698-165.728 0-91.528 37.025-165.727 82.698-165.727h331.605c45.673 0 82.698 74.199 82.698 165.727s-37.025 165.727-82.698 165.727h-331.605z" fill="#fd9e35"/><path d="m338.574 486.921c78.761 0 94.167-132.117 94.167-188.691 0-104.211-42.16-188.691-94.167-188.691h-181.289c-52.007 0-94.167 84.48-94.167 188.691 0 17.27 2.89 46.574 2.89 46.574 10.349 81.688 47.291 142.117 91.276 142.117z" fill="#f26900"/><path d="m168.15 167.975c15.915-41.974 42.017-68.516 79.779-68.516 73 0 99.197 88.993 99.197 198.771s-25.196 198.77-99.196 198.77-99.197-88.993-99.197-198.77c0-45.106 5.966-87.223 19.417-130.255z" fill="#fd9e35"/><path d="m247.93 99.459c-6.903 0-13.411.896-19.544 2.602 57.5 15.369 78.74 97.339 78.74 196.169 0 99.228-20.591 181.465-79.197 196.357 6.231 1.583 12.888 2.413 20 2.413 74 0 99.197-88.993 99.197-198.771s-26.196-198.77-99.196-198.77z" fill="#f7890f"/></g></g></svg>