<svg xmlns="http://www.w3.org/2000/svg" height="48" width="48" viewBox="0 0 48 48"><title>pumpkin 1</title><g class="nc-icon-wrapper"><path d="M22,10.29c.017-4.016,3.243-7.64,6-8.29l4,4a9.125,9.125,0,0,0-3.931,5.237Z" fill="#87613e"></path><path d="M19.436,44.427h-.052C2.905,43.575,1,36.66,1,31.533,1,18.808,7.1,11.747,18.168,11.652H29.823C40.9,11.747,47,18.808,47,31.533c0,10.706-10.492,12.486-18.384,12.893Z" fill="#e07e3d"></path><path d="M24,46c-6.617,0-12-8.3-12-18.5S17.383,9,24,9s12,8.3,12,18.5S30.617,46,24,46Z" fill="#ea9860"></path></g></svg>