<svg id="Capa_1" enable-background="new 0 0 512 512" height="512" viewBox="0 0 512 512" width="512" xmlns="http://www.w3.org/2000/svg"><g><path d="m326.763 349.39s0-106.469 51.051-172.269c2.819-3.634 8.585-.568 7.167 3.807-8.918 27.525-20.689 82.691-12.43 168.461h-45.788z" fill="#51be26"/><path d="m370.897 328.577h-13.77c-5.567 0-10.141-4.386-10.398-9.946-1.491-32.288-.971-60.379.669-84.358-20.627 56.928-20.634 115.117-20.634 115.117h45.789c-.691-7.154-1.233-14.082-1.656-20.813z" fill="#49a61f"/><path d="m283.057 349.39s0-130.07 51.17-210.316c2.545-3.991 8.71-1.309 7.471 3.258-8.962 33.021-21.243 100.778-12.852 207.058z" fill="#a1e42c"/><path d="m327.435 328.577h-3.499c-7.399 0-13.623-5.546-14.473-12.896l-10.389-89.854c-16.012 63.61-16.017 123.562-16.017 123.562h45.789c-.562-7.111-1.028-14.043-1.411-20.812z" fill="#89c627"/><path d="m185.237 349.39s0-106.469-51.051-172.269c-2.819-3.634-8.585-.568-7.167 3.807 8.918 27.525 20.689 82.691 12.43 168.461h45.788z" fill="#51be26"/><path d="m164.602 234.27c1.64 23.981 2.161 52.072.67 84.361-.257 5.561-4.832 9.946-10.398 9.946h-13.77c-.423 6.73-.966 13.659-1.654 20.813h45.789c-.002 0-.009-58.191-20.637-115.12z" fill="#49a61f"/><path d="m228.943 349.39s0-130.07-51.17-210.316c-2.545-3.991-8.71-1.309-7.471 3.258 8.962 33.021 21.243 100.778 12.852 207.058z" fill="#a1e42c"/><path d="m212.926 225.828-10.389 89.854c-.85 7.35-7.074 12.896-14.473 12.896h-3.499c-.384 6.768-.849 13.701-1.411 20.813h45.789c0-.001-.005-59.953-16.017-123.563z" fill="#89c627"/><path d="m251.906 51.785-34.41 297.605h77.008l-34.411-297.605c-.562-4.863-7.624-4.863-8.187 0z" fill="#a1e42c"/><path d="m217.496 349.39h77.008l-2.407-20.813h-72.195z" fill="#89c627"/><path d="m66.602 349.39s0-79.191 50.697-128.386c3.186-3.092 8.357.442 6.656 4.542-8.787 21.192-19.56 61.804-11.565 123.843h-45.788z" fill="#51be26"/><path d="m97.029 245.898 14.7 97.997c.206 1.815.422 3.642.661 5.495h-45.788s.007-56.334 30.427-103.492z" fill="#49a61f"/><path d="m66.602 349.39s0-79.191-50.697-128.386c-3.186-3.092-8.357.442-6.656 4.542 8.787 21.192 19.56 61.804 11.565 123.843h45.788z" fill="#51be26"/><path d="m66.602 349.39h-45.789c.239-1.853.455-3.68.661-5.495l14.7-97.997c30.42 47.158 30.428 103.492 30.428 103.492z" fill="#49a61f"/><path d="m70.677 168.428 27.144 180.962h-62.439l27.144-180.962c.702-4.679 7.449-4.679 8.151 0z" fill="#a1e42c"/><path d="m97.821 349.39h-62.439l3.122-20.813h56.195z" fill="#89c627"/><path d="m512 391.016h-512v-31.626c0-5.523 4.477-10 10-10h492c5.523 0 10 4.477 10 10z" fill="#a1e42c"/><path d="m479.74 349.39v41.626h32.26v-31.626c0-5.523-4.477-10-10-10z" fill="#89c627"/><path d="m502 463.862h-492c-5.523 0-10-4.477-10-10v-62.846h512v62.846c0 5.523-4.477 10-10 10z" fill="#c56e37"/><path d="m479.74 391.016v72.846h22.26c5.523 0 10-4.477 10-10v-62.846z" fill="#a95e2c"/><path d="m445.398 349.39s0-79.191-50.697-128.386c-3.186-3.092-8.357.442-6.656 4.542 8.787 21.192 19.56 61.804 11.565 123.843h45.788z" fill="#51be26"/><path d="m414.971 245.898-14.7 97.997c-.206 1.815-.422 3.642-.661 5.495h45.789c-.001 0-.008-56.334-30.428-103.492z" fill="#49a61f"/><path d="m445.398 349.39s0-79.191 50.697-128.386c3.186-3.092 8.357.442 6.656 4.542-8.787 21.192-19.56 61.804-11.565 123.843h-45.788z" fill="#51be26"/><path d="m445.398 349.39h45.789c-.239-1.853-.455-3.68-.661-5.495l-14.7-97.997c-30.42 47.158-30.428 103.492-30.428 103.492z" fill="#49a61f"/><path d="m441.323 168.428-27.144 180.962h62.439l-27.144-180.962c-.703-4.679-7.449-4.679-8.151 0z" fill="#a1e42c"/><path d="m414.179 349.39h62.439l-3.122-20.813h-56.195z" fill="#89c627"/></g></svg>