<svg id="Layer_1" enable-background="new 0 0 512 512" height="512" viewBox="0 0 512 512" width="512" xmlns="http://www.w3.org/2000/svg"><g><path d="m447.733 145.678v-105.967c0-22.751-17.691-39.711-38.987-39.711-19.861 0-38.829 9.484-50.737 25.369l-41.484 55.308c-24.723 32.962-1.204 80.001 39.999 80.001h76.21c8.284 0 14.999-6.715 14.999-15z" fill="#7d7073"/><path d="m64.267 145.678v-105.967c0-22.751 17.691-39.711 38.987-39.711 19.861 0 38.829 9.484 50.737 25.369l41.484 55.308c24.723 32.962 1.204 80.001-39.999 80.001h-76.21c-8.284 0-14.999-6.715-14.999-15z" fill="#a79ea0"/><path d="m448.8 305.267h-385.6c-8.284 0-15 6.716-15 15v96.4c0 8.284 6.716 15 15 15h33.2v33.2c0 8.284 6.716 15 15 15h61.378l77.651 31.061c1.788.715 3.68 1.073 5.571 1.073 1.892 0 3.783-.357 5.571-1.073l77.65-31.061h60.864c8.222 0 14.911-6.619 14.999-14.84l.355-33.36h33.361c8.284 0 15-6.716 15-15v-96.4c0-8.284-6.716-15-15-15z" fill="#a79ea0"/><path d="m339.222 479.867h60.864c8.222 0 14.911-6.619 14.999-14.84l.355-33.36h33.36c8.284 0 15-6.716 15-15v-96.4c0-8.284-6.716-15-15-15h-192.8v206.733c1.892 0 3.783-.357 5.571-1.073z" fill="#7d7073"/><path d="m479.445 274.966s-15.801-65.319-29.313-121.158c-12.751-52.721-59.544-89.542-113.792-89.542h-160.682c-54.248 0-101.041 36.821-113.792 89.542-13.512 55.838-29.313 121.158-29.313 121.158-2.214 9.149 4.584 18.53 14.591 18.53h417.71c11.339.001 16.483-10.712 14.591-18.53z" fill="#7d7073"/><path d="m479.445 274.966s-15.801-65.319-29.313-121.158c-12.751-52.721-59.544-89.542-113.792-89.542h-80.34v229.23h208.854c11.339.001 16.483-10.712 14.591-18.53z" fill="#5a555a"/><path d="m508.89 311.121-121.615-158.102c-12.495-16.25-31.396-26.329-51.846-27.651-20.464-1.341-40.491 6.216-54.986 20.71l-13.836 13.836c-5.858 5.858-15.355 5.858-21.213 0l-13.836-13.836c-14.494-14.494-34.541-22.044-54.979-20.71-20.458 1.323-39.357 11.402-51.852 27.65l-121.617 158.103c-4.012 5.216-4.21 12.535-.203 18.026 2.885 3.954 7.63 6.12 12.525 6.12h113.101v17.133c0 3.978 1.58 7.793 4.393 10.606l64.267 64.267h117.613l64.267-64.267c2.813-2.813 4.394-6.628 4.394-10.606v-17.133h113.102c4.895 0 9.639-2.166 12.524-6.12 4.007-5.491 3.809-12.81-.203-18.026z" fill="#f3f3f3"/><path d="m379.073 363.007c2.813-2.813 4.394-6.628 4.394-10.606v-17.133h113.102c4.895 0 9.639-2.166 12.524-6.12 4.007-5.491 3.809-12.81-.203-18.026l-121.615-158.103c-12.495-16.25-31.396-26.329-51.846-27.651-20.464-1.341-40.491 6.216-54.986 20.71l-13.836 13.836c-2.929 2.929-6.768 4.393-10.607 4.393v262.966h58.807z" fill="#dfdcdd"/><path d="m304.2 431.667h-96.4c-8.284 0-15-6.716-15-15v-16.083c0-34.84 28.344-63.184 63.184-63.184 34.984 0 63.216 28.297 63.216 63.2v16.066c0 8.285-6.716 15.001-15 15.001z" fill="#7d7073"/><path d="m319.2 416.667v-16.067c0-34.898-28.224-63.191-63.2-63.2v94.266h48.2c8.284.001 15-6.715 15-14.999z" fill="#5a555a"/><path d="m186.99 246.131-24.1-8.033c-7.859-2.62-12.107-11.115-9.487-18.974s11.113-12.105 18.974-9.487l24.1 8.033c7.859 2.62 12.107 11.115 9.487 18.974-2.481 7.443-10.724 12.236-18.974 9.487z" fill="#643f35"/><path d="m306.036 236.643c-2.619-7.859 1.628-16.354 9.487-18.974l24.1-8.033c7.857-2.619 16.353 1.627 18.974 9.487 2.619 7.859-1.628 16.354-9.487 18.974l-24.1 8.033c-7.513 2.505-16.243-1.297-18.974-9.487z" fill="#3c282d"/><path d="m128.533 335.267v-47.133c0-8.284-6.716-15-15-15s-15 6.716-15 15v47.133z" fill="#dfdcdd"/><path d="m413.467 335.267v-47.133c0-8.284-6.716-15-15-15s-15 6.716-15 15v47.133z" fill="#cac5c6"/></g></svg>