<svg id="Layer_1" enable-background="new 0 0 512 512" height="512" viewBox="0 0 512 512" width="512" xmlns="http://www.w3.org/2000/svg"><path d="m282.6 435c-16 34.8-9.6 61-9.6 61-15.3-8.1-25.1-20.2-31.3-32.9-.1-.2-.2-.4-.3-.6-12.9-27-10.7-58.8 4.9-84.3l43.1-70.3c11.7-21.3 30.5-35.8 43.8-43.1 17.6-9.7 24.7-31.3 16.4-49.6-.1-.3-.2-.6-.4-.8-6.9-14.5-19.2-25.8-34.3-31.4 0 0 17.2-42.4 15-62.4-.5-4-1.2-8.7-2.2-13.7 0 0 29.6 18.2 45.5 35.1 48 50.7 78.1 45.7 78.1 45.7s.4 17.4-20.2 23.4c0 0 36.2 77.9-19.3 120.3-30 70.4-86.8 88-87.8 88.3-10.1 20.8-21.7 40.8-34.7 59.9-12.5-12.5-6.9-43.4-6.7-44.6z" fill="#635a63"/><path d="m95.6 238.8c-13.2-4.1-22.2-18.2-27.9-31.5 6.3 0 12.5-1.8 17.9-5.1 6.4-3.7 7.8-7.7.7-9.9-5.5-1.6-9.9-5.6-12.1-10.8l-1.3-3.3c25.9-4.4 80.1-14.9 87-25.7 9.1-14.3 8.4-31.8 24-39l34.6-10.7 39.6-12.2c4.2-1.3 7-5.1 7.1-9.4.3-12.1 2.4-37 13.6-54.8 23.1 53.4 22.2 88.8 19.5 105.2-.5 2.9-1.2 5.7-2.2 8.4s-2.3 5.3-3.8 7.8c-4.4 7.1-3.4 16.2 2.4 22.2 5.7 5.8 12.5 10.3 20.1 13.2 15.1 5.6 27.4 16.8 34.3 31.4.1.3.2.6.4.8 8.3 18.3 1.1 39.9-16.4 49.6-13.3 7.3-32.1 21.8-43.8 43.1l-43.1 70.3c-15.6 25.5-17.8 57.3-4.9 84.3l.3.6c-59.7-29.2-19.2-132-19.2-132 17.5-62.3-12.1-70-45.2-67.3-28.1 2.2-48.1 16.6-67.7 9.6s-13.9-34.8-13.9-34.8z" fill="#9f97a1"/><path d="m85.6 202.2c-5.1 2.9 68.6-9.1 76-19.8 10-14.3 9.2-31.8 26.3-39l37.9-10.7 43.4-12.2c.8-.2 1.7-.6 2.4-1 3.2-1.7 5.2-4.9 5.4-8.4.3-11.7 2.5-35.1 13.6-52.8-3.3-10.9-7.3-21.6-11.8-32-11.2 17.9-13.3 42.7-13.6 54.8-.1 4.4-3 8.2-7.1 9.4l-39.6 12.2-34.6 10.7c-15.6 7.1-14.9 24.7-24 39-6.9 10.8-61.1 21.3-87 25.7l1.3 3.3c2.2 5.3 6.6 9.2 12.1 10.8 7.1 2.3 5.7 6.3-.7 10z" fill="#bfb8c1"/><g fill="#4f474f"><path d="m329.9 120.6c2.3 20-15 62.4-15 62.4-7.6-2.9-14.5-7.3-20.1-13.2-5.8-6-6.8-15.1-2.4-22.2 1.5-2.5 2.8-5.1 3.8-7.8s1.8-5.5 2.2-8.4c2.6-16.4 3.6-51.8-19.5-105.2 2.3-3.8 5.2-7.3 8.5-10.3 0 0 5 2.2 14.5 17.2 9.2 14.6 16 30.6 20 47.4 2 8.1 4.1 17.7 5.8 26.3.9 5.1 1.7 9.9 2.2 13.8z"/><path d="m260.4 89.6c-.7.4-1.4.8-2.2 1l-39.6 12.2-.1-.4s-17.1-37 6.9-69.3c-.2-.1 27.1 27.9 35 56.5z"/><ellipse cx="197.8" cy="155.4" rx="8" ry="8"/></g><path d="m86.3 192.3c7.1 2.2 5.7 6.2-.7 9.9-5.4 3.3-11.6 5-17.9 5.1-2.8-6.5-5.1-13.2-6.9-20.1-.9-3.4 1.1-6.9 4.5-7.8.2-.1.4-.1.6-.1 2-.3 4.3-.7 6.9-1.1l1.3 3.3c2.3 5.3 6.7 9.2 12.2 10.8z" fill="#655e67"/><path d="m181.1 230.4c2.8-2 3.4-5.7 1.5-8.4s-5.6-3.4-8.4-1.5l-.1.1c-23.6 16.7-76.7 14.9-89.7 11.8 3.2 2.9 7 5.1 11.1 6.4-.4 2.3-.7 4.7-.8 7.1 4.6.4 9.9.6 15.6.6 23.4 0 53.3-3.7 70.8-16.1z" fill="#8f838f"/></svg>